<svg width="441" height="99" viewBox="0 0 441 99" fill="none" xmlns="http://www.w3.org/2000/svg">
<g clip-path="url(#clip0_32_2)">
<path d="M118.97 73.36H107.28V25.57H125.79C135.41 25.57 142.63 32.59 142.63 42.08C142.63 51.57 135.41 58.65 125.85 58.65H118.97V73.35V73.36ZM124.25 48.63C127.86 48.63 130.6 45.82 130.6 42.08C130.6 38.34 127.86 35.73 124.25 35.73H118.97V48.63H124.25Z" fill="#C42026"/>
<path d="M148.67 25.57H168.45C178.61 25.57 185.36 32.19 185.36 41.27C185.36 47.08 181.62 52.43 175.87 54.57L188.23 73.35H175.07L164.78 56.91H160.43V73.35H148.67V25.57ZM167.18 47.23C170.85 47.23 173.26 44.69 173.26 41.35C173.26 38.01 170.85 35.54 167.18 35.54H160.43V47.23H167.18Z" fill="#C42026"/>
<path d="M194.06 25.64H205.82V73.36H194.06V25.64Z" fill="#C42026"/>
<path d="M257.09 25.64V73.36H247.4L227.08 45.69V73.36H215.39V25.64H225.15L245.4 53.24V25.64H257.09Z" fill="#C42026"/>
<path d="M275.7 36H262.8V25.57H300.36V36H287.46V73.36H275.7V36Z" fill="#C42026"/>
<path d="M306.13 25.57H324.64C333.73 25.57 339.81 30.78 339.81 38.67C339.81 43.48 336.53 47.29 332.99 48.76C337.67 49.76 342.01 53.71 342.01 59.99C342.01 68.01 335.33 73.35 325.57 73.35H306.12V25.57H306.13ZM323.3 44.42C326.17 44.42 327.98 42.28 327.98 39.88C327.98 37.48 326.11 35.54 323.23 35.54H317.69V44.43H323.3V44.42ZM324.91 63.4C327.78 63.4 330.06 61.33 330.06 58.32C330.06 55.51 327.65 53.51 324.65 53.51H317.7V63.4H324.92H324.91Z" fill="#C42026"/>
<path d="M396.5 49.5C396.5 63.2 386.21 74.16 371.51 74.16C356.81 74.16 346.58 63.2 346.58 49.5C346.58 35.8 356.8 24.84 371.57 24.84C386.34 24.84 396.5 35.8 396.5 49.5ZM358.61 49.5C358.61 57.19 363.76 63.2 371.58 63.2C379.4 63.2 384.48 57.19 384.48 49.5C384.48 41.81 379.34 35.8 371.58 35.8C363.82 35.8 358.61 41.75 358.61 49.5Z" fill="#C42026"/>
<path d="M410.69 49.63L396.19 25.64H409.42L418.18 41.08L427 25.64H440.23L425.73 49.63L440.17 73.36H427.21L418.19 58.12L409.23 73.36H396.26L410.7 49.63H410.69Z" fill="#C42026"/>
<path d="M87.08 49.5V38.37V27.25C87.08 27.14 87.07 27.03 87.06 26.92C87.06 26.81 87.06 26.7 87.04 26.59C87.02 26.44 86.99 26.3 86.95 26.16C86.93 26.09 86.93 26.02 86.91 25.95C86.88 25.84 86.84 25.73 86.8 25.62C86.77 25.53 86.74 25.43 86.7 25.33C86.68 25.29 86.66 25.25 86.64 25.21C86.57 25.05 86.5 24.9 86.41 24.75C85.98 24 85.35 23.37 84.58 22.92L46.04 0.670002C44.49 -0.219998 42.59 -0.219998 41.04 0.670002L2.5 22.92C1 23.79 0.07 25.37 0.01 27.09C0.01 27.14 0 27.2 0 27.25V38.37V49.5V60.62V71.75C0 73.54 0.95 75.19 2.5 76.08L41.04 98.33C41.81 98.78 42.68 99 43.54 99C44.4 99 45.27 98.78 46.04 98.33L65.31 87.21L84.58 76.09C86.13 75.2 87.08 73.55 87.08 71.76V60.63V49.51V49.5ZM43.54 10.77L72.08 27.25L50.68 39.6L43.54 43.72L24.71 32.85L15 27.24L43.54 10.77ZM10 49.5V38.37V35.91L23.62 43.78L38.53 52.39V60.62V71.75V82.87V85.34L9.99 68.86V60.62V49.5H10ZM77.08 68.86L48.54 85.33V82.86V71.74V60.61V52.38L77.08 35.9V38.36V49.49V60.61V68.85V68.86Z" fill="#C42026"/>
</g>
<defs>
<clipPath id="clip0_32_2">
<rect width="440.23" height="99" fill="white"/>
</clipPath>
</defs>
</svg>
